<svg width="157" height="74" viewBox="0 0 157 74" fill="none" xmlns="http://www.w3.org/2000/svg">
<rect width="68.2028" height="74" rx="4" fill="#7F56D9"/>
<mask id="mask0_685_2" style="mask-type:alpha" maskUnits="userSpaceOnUse" x="21" y="28" width="28" height="29">
<rect x="21.4839" y="28.9862" width="27.2811" height="27.2811" fill="#D9D9D9"/>
</mask>
<g mask="url(#mask0_685_2)">
<path d="M35.1246 53.994C33.5332 53.994 32.046 53.6956 30.663 53.0989C29.28 52.5021 28.077 51.6922 27.0539 50.6691C26.0309 49.6461 25.2257 48.4383 24.6384 47.0459C24.0511 45.6534 23.7574 44.1615 23.7574 42.5701C23.7574 40.9787 24.0511 39.4962 24.6384 38.1227C25.2257 36.7491 26.0309 35.5509 27.0539 34.5278C28.077 33.5048 29.28 32.7043 30.663 32.1265C32.046 31.5487 33.5332 31.2598 35.1246 31.2598C36.716 31.2598 38.2032 31.5487 39.5862 32.1265C40.9692 32.7043 42.1722 33.5048 43.1952 34.5278C44.2183 35.5509 45.0235 36.7491 45.6108 38.1227C46.1981 39.4962 46.4917 40.9787 46.4917 42.5701C46.4917 44.1615 46.1981 45.6534 45.6108 47.0459C45.0235 48.4383 44.2183 49.6461 43.1952 50.6691C42.1722 51.6922 40.9692 52.5021 39.5862 53.0989C38.2032 53.6956 36.716 53.994 35.1246 53.994ZM35.1246 52.3458C35.7877 51.6638 36.3418 50.8823 36.787 50.0013C37.2322 49.1204 37.5969 48.0736 37.8811 46.8612H32.3965C32.6617 47.9979 33.0169 49.0209 33.4621 49.9303C33.9073 50.8396 34.4615 51.6448 35.1246 52.3458ZM32.7091 52.0048C32.2354 51.2849 31.8281 50.5081 31.4871 49.6745C31.1461 48.8409 30.8619 47.9031 30.6346 46.8612H26.3719C27.0918 48.2063 27.9254 49.2625 28.8727 50.0297C29.8199 50.797 31.0987 51.4554 32.7091 52.0048ZM37.5685 51.9764C38.9326 51.5406 40.1593 50.887 41.2486 50.0155C42.338 49.144 43.2142 48.0926 43.8773 46.8612H39.643C39.3967 47.8842 39.1078 48.8125 38.7763 49.6461C38.4447 50.4797 38.0421 51.2564 37.5685 51.9764ZM25.8035 45.1561H30.322C30.2651 44.6446 30.232 44.1851 30.2225 43.7778C30.213 43.3705 30.2083 42.9679 30.2083 42.5701C30.2083 42.0964 30.2178 41.6749 30.2367 41.3055C30.2557 40.936 30.2935 40.524 30.3504 40.0693H25.8035C25.6709 40.524 25.5809 40.9313 25.5336 41.2913C25.4862 41.6512 25.4625 42.0775 25.4625 42.5701C25.4625 43.0626 25.4862 43.5031 25.5336 43.8915C25.5809 44.2799 25.6709 44.7014 25.8035 45.1561ZM32.0839 45.1561H38.1937C38.2695 44.5688 38.3168 44.0904 38.3358 43.721C38.3547 43.3516 38.3642 42.9679 38.3642 42.5701C38.3642 42.1912 38.3547 41.8265 38.3358 41.476C38.3168 41.1255 38.2695 40.6566 38.1937 40.0693H32.0839C32.0081 40.6566 31.9607 41.1255 31.9418 41.476C31.9228 41.8265 31.9134 42.1912 31.9134 42.5701C31.9134 42.9679 31.9228 43.3516 31.9418 43.721C31.9607 44.0904 32.0081 44.5688 32.0839 45.1561ZM39.8988 45.1561H44.4456C44.5782 44.7014 44.6682 44.2799 44.7156 43.8915C44.763 43.5031 44.7866 43.0626 44.7866 42.5701C44.7866 42.0775 44.763 41.6512 44.7156 41.2913C44.6682 40.9313 44.5782 40.524 44.4456 40.0693H39.9272C39.984 40.7324 40.0219 41.2392 40.0409 41.5896C40.0598 41.9401 40.0693 42.2669 40.0693 42.5701C40.0693 42.9869 40.0551 43.38 40.0266 43.7494C39.9982 44.1188 39.9556 44.5877 39.8988 45.1561ZM39.6146 38.3642H43.8773C43.2521 37.057 42.3948 35.9677 41.3055 35.0962C40.2161 34.2247 38.961 33.609 37.5401 33.249C38.0137 33.95 38.4163 34.7078 38.7478 35.5224C39.0794 36.3371 39.3683 37.2843 39.6146 38.3642ZM32.3965 38.3642H37.9095C37.7011 37.3601 37.3506 36.3892 36.8581 35.4514C36.3655 34.5136 35.7877 33.6848 35.1246 32.9648C34.5183 33.4764 34.0068 34.1489 33.59 34.9825C33.1732 35.8161 32.7754 36.9433 32.3965 38.3642ZM26.3719 38.3642H30.663C30.8714 37.3412 31.1366 36.4271 31.4587 35.6219C31.7807 34.8167 32.1881 34.0352 32.6806 33.2774C31.2598 33.6374 30.0188 34.2436 28.9579 35.0962C27.897 35.9487 27.035 37.0381 26.3719 38.3642Z" fill="#A5CBC3"/>
</g>
<path d="M54.9411 18.2253H18.68C18.1965 18.2184 17.7194 18.1137 17.2775 17.9175C16.8356 17.7212 16.438 17.4375 16.1087 17.0835C15.7794 16.7294 15.5253 16.3123 15.3616 15.8573C15.1979 15.4024 15.128 14.9189 15.1562 14.4362C15.1538 13.4756 15.5164 12.55 16.1706 11.8466C16.8248 11.1431 17.7217 10.7144 18.68 10.6472H54.9411C55.4436 10.6472 55.9255 10.4476 56.2808 10.0923C56.636 9.73701 56.8356 9.25513 56.8356 8.75268C56.8356 8.25022 56.636 7.76834 56.2808 7.41305C55.9255 7.05776 55.4436 6.85815 54.9411 6.85815H18.68C16.7165 6.92692 14.8564 7.75558 13.4921 9.16936C12.1278 10.5831 11.3659 12.4715 11.3671 14.4362C11.3488 14.7454 11.3488 15.0554 11.3671 15.3646C11.3489 15.5156 11.3489 15.6682 11.3671 15.8192V59.9048C11.3659 61.8695 12.1278 63.7579 13.4921 65.1716C14.8564 66.5854 16.7165 67.4141 18.68 67.4828H54.9411C55.4436 67.4828 55.9255 67.2832 56.2808 66.928C56.636 66.5727 56.8356 66.0908 56.8356 65.5883V20.5934C56.8356 20.5934 56.8356 20.4798 56.8356 20.4229C56.8356 20.3661 56.8356 20.3093 56.8356 20.2524C56.8367 19.737 56.6415 19.2405 56.2895 18.8639C55.9376 18.4874 55.4554 18.259 54.9411 18.2253ZM53.0466 63.6938H18.68C17.7217 63.6266 16.8248 63.1979 16.1706 62.4944C15.5164 61.791 15.1538 60.8654 15.1562 59.9048V21.1618C16.2334 21.756 17.4503 22.0505 18.68 22.0143H53.0466V63.6938Z" fill="white"/>
<path d="M53.0465 12.9205H18.9451V15.857H53.0465V12.9205Z" fill="white"/>
<path d="M79.91 28.13C79.754 28.13 79.6327 28.0867 79.546 28C79.4593 27.9133 79.416 27.818 79.416 27.714C79.416 27.454 79.5893 27.272 79.936 27.168C80.508 26.9947 80.9067 26.8127 81.132 26.622C81.3747 26.4313 81.496 26.0673 81.496 25.53V13.674C81.496 13.1193 81.3833 12.7293 81.158 12.504C80.95 12.2613 80.5427 12.0707 79.936 11.932C79.728 11.88 79.5807 11.802 79.494 11.698C79.4247 11.594 79.39 11.49 79.39 11.386C79.39 11.2647 79.4333 11.1693 79.52 11.1C79.624 11.0133 79.754 10.97 79.91 10.97C80.482 10.97 80.9587 10.9873 81.34 11.022C81.7213 11.0567 82.0853 11.0913 82.432 11.126C82.7787 11.1607 83.1773 11.178 83.628 11.178C84.044 11.178 84.4253 11.1607 84.772 11.126C85.1187 11.074 85.5 11.0307 85.916 10.996C86.3493 10.944 86.878 10.918 87.502 10.918C89.5647 10.918 91.1333 11.2127 92.208 11.802C93.3 12.374 93.846 13.3707 93.846 14.792C93.846 15.312 93.716 15.8147 93.456 16.3C93.2133 16.7853 92.8753 17.2013 92.442 17.548C92.1647 17.7733 91.8613 17.9727 91.532 18.146C91.22 18.302 90.882 18.4233 90.518 18.51C90.4487 18.5273 90.414 18.5707 90.414 18.64C90.414 18.7093 90.4487 18.7527 90.518 18.77C90.986 18.8567 91.4627 18.9867 91.948 19.16C92.4507 19.316 92.9187 19.55 93.352 19.862C93.7853 20.174 94.132 20.5813 94.392 21.084C94.652 21.5693 94.782 22.1933 94.782 22.956C94.782 23.9267 94.626 24.698 94.314 25.27C94.0193 25.842 93.6553 26.2753 93.222 26.57C92.7887 26.8647 92.39 27.1073 92.026 27.298C91.454 27.5753 90.804 27.7833 90.076 27.922C89.348 28.0433 88.4813 28.104 87.476 28.104C86.8173 28.104 86.1847 28.0867 85.578 28.052C84.9713 28.0173 84.33 28 83.654 28C83.3073 28 82.9 28.0087 82.432 28.026C81.9813 28.0433 81.5307 28.0607 81.08 28.078C80.6467 28.1127 80.2567 28.13 79.91 28.13ZM87.398 26.596C87.8833 26.596 88.3253 26.4487 88.724 26.154C89.14 25.842 89.4693 25.426 89.712 24.906C89.9547 24.386 90.076 23.8053 90.076 23.164C90.076 22.5747 90.0067 22.0893 89.868 21.708C89.7467 21.3267 89.5907 21.0233 89.4 20.798C89.2267 20.5553 89.062 20.3733 88.906 20.252C88.7847 20.1307 88.5593 20.0093 88.23 19.888C87.918 19.7493 87.528 19.68 87.06 19.68C86.8347 19.68 86.5833 19.7493 86.306 19.888C86.046 20.0093 85.916 20.2173 85.916 20.512V24.984C85.916 25.504 86.046 25.9027 86.306 26.18C86.566 26.4573 86.93 26.596 87.398 26.596ZM86.93 18.432C87.3287 18.432 87.684 18.3887 87.996 18.302C88.308 18.198 88.62 18.0073 88.932 17.73C89.0533 17.6087 89.2093 17.366 89.4 17.002C89.5907 16.6207 89.686 16.0833 89.686 15.39C89.686 14.61 89.5907 13.986 89.4 13.518C89.2267 13.0327 88.958 12.686 88.594 12.478C88.23 12.2527 87.7793 12.14 87.242 12.14C86.8087 12.14 86.4793 12.2353 86.254 12.426C86.0287 12.5993 85.916 12.868 85.916 13.232V17.522C85.916 17.834 86.0287 18.068 86.254 18.224C86.4967 18.3627 86.722 18.432 86.93 18.432ZM101.692 28.364C100.635 28.364 99.6812 28.13 98.8319 27.662C97.9826 27.194 97.3066 26.544 96.8039 25.712C96.3012 24.88 96.0499 23.9353 96.0499 22.878C96.0499 22.0287 96.2059 21.2313 96.5179 20.486C96.8472 19.7233 97.2892 19.056 97.8439 18.484C98.4159 17.912 99.0746 17.4613 99.8199 17.132C100.583 16.8027 101.397 16.638 102.264 16.638C103.356 16.638 104.335 16.8893 105.202 17.392C106.086 17.8947 106.788 18.562 107.308 19.394C107.828 20.226 108.088 21.136 108.088 22.124C108.088 23.2507 107.845 24.2907 107.36 25.244C106.892 26.1973 106.181 26.96 105.228 27.532C104.292 28.0867 103.113 28.364 101.692 28.364ZM102.186 27.142C102.498 27.142 102.767 27.0813 102.992 26.96C103.217 26.8213 103.408 26.6307 103.564 26.388C103.772 26.0413 103.919 25.5647 104.006 24.958C104.093 24.3513 104.136 23.6147 104.136 22.748C104.136 21.7773 104.041 20.928 103.85 20.2C103.659 19.472 103.391 18.9 103.044 18.484C102.715 18.068 102.325 17.86 101.874 17.86C101.649 17.86 101.441 17.9033 101.25 17.99C101.059 18.0593 100.895 18.1633 100.756 18.302C100.461 18.614 100.253 19.0993 100.132 19.758C100.028 20.3993 99.9759 21.2227 99.9759 22.228C99.9759 23.0427 100.071 23.8313 100.262 24.594C100.453 25.3393 100.713 25.9547 101.042 26.44C101.389 26.908 101.77 27.142 102.186 27.142ZM114.819 28.364C113.762 28.364 112.808 28.13 111.959 27.662C111.11 27.194 110.434 26.544 109.931 25.712C109.428 24.88 109.177 23.9353 109.177 22.878C109.177 22.0287 109.333 21.2313 109.645 20.486C109.974 19.7233 110.416 19.056 110.971 18.484C111.543 17.912 112.202 17.4613 112.947 17.132C113.71 16.8027 114.524 16.638 115.391 16.638C116.483 16.638 117.462 16.8893 118.329 17.392C119.213 17.8947 119.915 18.562 120.435 19.394C120.955 20.226 121.215 21.136 121.215 22.124C121.215 23.2507 120.972 24.2907 120.487 25.244C120.019 26.1973 119.308 26.96 118.355 27.532C117.419 28.0867 116.24 28.364 114.819 28.364ZM115.313 27.142C115.625 27.142 115.894 27.0813 116.119 26.96C116.344 26.8213 116.535 26.6307 116.691 26.388C116.899 26.0413 117.046 25.5647 117.133 24.958C117.22 24.3513 117.263 23.6147 117.263 22.748C117.263 21.7773 117.168 20.928 116.977 20.2C116.786 19.472 116.518 18.9 116.171 18.484C115.842 18.068 115.452 17.86 115.001 17.86C114.776 17.86 114.568 17.9033 114.377 17.99C114.186 18.0593 114.022 18.1633 113.883 18.302C113.588 18.614 113.38 19.0993 113.259 19.758C113.155 20.3993 113.103 21.2227 113.103 22.228C113.103 23.0427 113.198 23.8313 113.389 24.594C113.58 25.3393 113.84 25.9547 114.169 26.44C114.516 26.908 114.897 27.142 115.313 27.142ZM122.287 28.078C121.94 28.078 121.767 27.948 121.767 27.688C121.767 27.5493 121.819 27.4453 121.923 27.376C122.027 27.2893 122.174 27.2113 122.365 27.142C122.625 27.0553 122.85 26.9687 123.041 26.882C123.232 26.778 123.327 26.5353 123.327 26.154V13.804C123.327 13.336 123.266 12.9287 123.145 12.582C123.041 12.2353 122.772 12.0187 122.339 11.932C122.148 11.8973 122.053 11.7587 122.053 11.516C122.053 11.2907 122.14 11.1607 122.313 11.126C122.746 11.0393 123.24 10.9093 123.795 10.736C124.35 10.5453 124.878 10.3547 125.381 10.164C125.901 9.97333 126.291 9.83467 126.551 9.748C126.707 9.696 126.828 9.67 126.915 9.67C127.036 9.67 127.114 9.70467 127.149 9.774C127.184 9.84333 127.201 9.92133 127.201 10.008C127.201 10.1293 127.184 10.3373 127.149 10.632C127.114 10.9093 127.088 11.1693 127.071 11.412L127.097 21.396C127.097 21.6213 127.175 21.734 127.331 21.734C127.383 21.734 127.435 21.7167 127.487 21.682C127.556 21.6473 127.608 21.6213 127.643 21.604C128.267 21.0493 128.83 20.486 129.333 19.914C129.853 19.3247 130.2 18.8913 130.373 18.614C130.442 18.51 130.494 18.4233 130.529 18.354C130.581 18.2673 130.607 18.198 130.607 18.146C130.607 18.0593 130.538 17.9727 130.399 17.886C130.26 17.782 130.044 17.7127 129.749 17.678C129.541 17.6433 129.437 17.5393 129.437 17.366C129.437 17.21 129.498 17.1147 129.619 17.08C129.758 17.028 129.888 17.002 130.009 17.002H131.283C131.595 17.002 132.02 16.9933 132.557 16.976C133.112 16.9413 133.649 16.9067 134.169 16.872C134.706 16.82 135.088 16.7853 135.313 16.768C135.504 16.768 135.599 16.872 135.599 17.08C135.599 17.2187 135.547 17.34 135.443 17.444C135.339 17.5307 135.192 17.5913 135.001 17.626C134.706 17.6953 134.351 17.8167 133.935 17.99C133.519 18.1633 133.086 18.38 132.635 18.64C132.306 18.8133 131.976 19.0127 131.647 19.238C131.318 19.446 131.006 19.6627 130.711 19.888C130.434 20.1133 130.182 20.3387 129.957 20.564C129.87 20.6507 129.827 20.746 129.827 20.85C129.827 20.9193 129.844 20.98 129.879 21.032C129.931 21.0667 129.974 21.11 130.009 21.162C130.425 21.6993 130.806 22.228 131.153 22.748C131.5 23.2507 131.855 23.7447 132.219 24.23C132.583 24.7153 132.99 25.218 133.441 25.738C133.736 26.0673 134.091 26.3707 134.507 26.648C134.94 26.908 135.296 27.09 135.573 27.194C135.712 27.246 135.859 27.3067 136.015 27.376C136.188 27.4453 136.275 27.5493 136.275 27.688C136.275 27.948 136.084 28.078 135.703 28.078C134.576 28.078 133.493 28.0607 132.453 28.026C131.43 28.0087 130.486 28 129.619 28C129.272 28 129.099 27.87 129.099 27.61C129.099 27.4713 129.151 27.3673 129.255 27.298C129.359 27.2113 129.506 27.1333 129.697 27.064C129.836 27.012 129.922 26.96 129.957 26.908C130.009 26.8387 130.044 26.7693 130.061 26.7C130.061 26.6133 130.026 26.5267 129.957 26.44C129.905 26.336 129.827 26.2147 129.723 26.076L127.357 22.618C127.322 22.5833 127.288 22.566 127.253 22.566C127.149 22.6007 127.097 22.67 127.097 22.774C127.097 23.034 127.097 23.3027 127.097 23.58C127.097 23.84 127.097 24.1 127.097 24.36C127.097 24.6373 127.097 24.9407 127.097 25.27C127.097 25.582 127.097 25.8853 127.097 26.18C127.097 26.4573 127.149 26.6653 127.253 26.804C127.374 26.9253 127.574 27.0293 127.851 27.116C127.99 27.168 128.111 27.2373 128.215 27.324C128.319 27.4107 128.371 27.5233 128.371 27.662C128.371 27.7833 128.328 27.8873 128.241 27.974C128.172 28.0433 128.068 28.078 127.929 28.078C127.582 28.078 127.253 28.0607 126.941 28.026C126.629 28.0087 126.326 27.9913 126.031 27.974C125.736 27.9567 125.433 27.948 125.121 27.948C124.826 27.948 124.523 27.9567 124.211 27.974C123.916 27.9913 123.604 28.0087 123.275 28.026C122.963 28.0607 122.634 28.078 122.287 28.078ZM84.772 62.364C84.0267 62.364 83.2987 62.2773 82.588 62.104C81.8773 61.948 81.21 61.6793 80.586 61.298C80.4647 61.2113 80.3433 61.116 80.222 61.012C80.118 60.8907 80.04 60.7693 79.988 60.648C79.7973 60.1453 79.6673 59.5473 79.598 58.854C79.5287 58.1433 79.5113 57.4067 79.546 56.644C79.546 56.5227 79.5893 56.436 79.676 56.384C79.78 56.332 79.9013 56.306 80.04 56.306C80.2307 56.306 80.352 56.332 80.404 56.384C80.4733 56.436 80.5427 56.5227 80.612 56.644C81.0107 57.9267 81.5913 58.9927 82.354 59.842C83.134 60.6913 84.0527 61.116 85.11 61.116C85.6473 61.116 86.0807 60.9947 86.41 60.752C86.7567 60.492 87.008 60.18 87.164 59.816C87.3373 59.4347 87.424 59.0707 87.424 58.724C87.424 58.204 87.32 57.762 87.112 57.398C86.904 57.034 86.5833 56.696 86.15 56.384C85.7167 56.072 85.1533 55.734 84.46 55.37C83.732 54.9713 83.0213 54.538 82.328 54.07C81.652 53.602 81.0973 53.03 80.664 52.354C80.2307 51.678 80.014 50.8287 80.014 49.806C80.014 48.766 80.2913 47.8733 80.846 47.128C81.418 46.3653 82.172 45.776 83.108 45.36C84.0613 44.944 85.1013 44.736 86.228 44.736C86.8867 44.736 87.528 44.8053 88.152 44.944C88.7933 45.0827 89.3047 45.23 89.686 45.386C89.9113 45.4727 90.0673 45.568 90.154 45.672C90.2407 45.7587 90.3273 45.9493 90.414 46.244C90.5007 46.608 90.5613 47.0587 90.596 47.596C90.648 48.116 90.674 48.714 90.674 49.39C90.674 49.6153 90.5093 49.728 90.18 49.728C90.0413 49.728 89.9027 49.6933 89.764 49.624C89.6427 49.5373 89.5647 49.4333 89.53 49.312C89.2527 48.2373 88.8193 47.4313 88.23 46.894C87.6407 46.3393 86.9213 46.062 86.072 46.062C85.5347 46.062 85.0927 46.1487 84.746 46.322C84.4167 46.4953 84.1653 46.7467 83.992 47.076C83.836 47.388 83.758 47.7867 83.758 48.272C83.758 48.6533 83.8967 49.0173 84.174 49.364C84.4513 49.7107 84.85 50.066 85.37 50.43C85.9073 50.7767 86.5313 51.1667 87.242 51.6C88.2473 52.1893 89.0273 52.7613 89.582 53.316C90.1367 53.8707 90.5267 54.4513 90.752 55.058C90.9773 55.6473 91.09 56.3233 91.09 57.086C91.09 58.3167 90.8213 59.322 90.284 60.102C89.764 60.882 89.0273 61.454 88.074 61.818C87.138 62.182 86.0373 62.364 84.772 62.364ZM94.34 69.358C93.8547 69.358 93.3867 69.1847 92.936 68.838C92.5027 68.4913 92.286 68.0753 92.286 67.59C92.286 67.2433 92.3727 66.8967 92.546 66.55C92.7193 66.2207 92.9967 66.056 93.378 66.056C93.6727 66.056 93.976 66.108 94.288 66.212C94.6 66.316 94.8947 66.3593 95.172 66.342C95.4667 66.3073 95.666 66.2293 95.77 66.108C95.8913 66.004 96.03 65.8047 96.186 65.51C96.29 65.3367 96.3853 65.1807 96.472 65.042C96.5587 64.9033 96.6627 64.7127 96.784 64.47C96.9053 64.2273 97.07 63.8807 97.278 63.43C97.5207 62.8927 97.642 62.4247 97.642 62.026C97.642 61.7487 97.5987 61.4973 97.512 61.272C97.4253 61.0293 97.33 60.7953 97.226 60.57L94.002 53.368C93.8287 52.9693 93.6467 52.64 93.456 52.38C93.2653 52.1027 93.0053 51.9033 92.676 51.782C92.5027 51.7127 92.3813 51.6433 92.312 51.574C92.2427 51.4873 92.208 51.366 92.208 51.21C92.208 51.0713 92.286 50.9847 92.442 50.95C92.598 50.9153 92.7367 50.898 92.858 50.898C93.2913 50.898 93.664 50.9067 93.976 50.924C94.288 50.9413 94.5653 50.9587 94.808 50.976C95.0507 50.9933 95.2847 51.002 95.51 51.002C95.8913 51.002 96.2207 50.9933 96.498 50.976C96.7927 50.9587 97.096 50.9413 97.408 50.924C97.7373 50.9067 98.11 50.898 98.526 50.898C98.6473 50.898 98.7773 50.924 98.916 50.976C99.072 51.028 99.15 51.1233 99.15 51.262C99.15 51.418 99.0893 51.522 98.968 51.574C98.8467 51.626 98.7167 51.6867 98.578 51.756C98.3873 51.8253 98.2313 51.938 98.11 52.094C98.006 52.2327 97.954 52.458 97.954 52.77C97.954 52.926 97.9713 53.108 98.006 53.316C98.058 53.5067 98.1447 53.758 98.266 54.07L99.774 57.736C99.7913 57.7707 99.8087 57.788 99.826 57.788C99.8433 57.788 99.8607 57.7707 99.878 57.736L101.126 53.914C101.178 53.7753 101.221 53.6107 101.256 53.42C101.291 53.212 101.308 53.03 101.308 52.874C101.308 52.5793 101.213 52.3367 101.022 52.146C100.831 51.9553 100.641 51.8253 100.45 51.756C100.311 51.704 100.181 51.652 100.06 51.6C99.9387 51.5307 99.878 51.418 99.878 51.262C99.878 51.1233 99.9473 51.028 100.086 50.976C100.242 50.924 100.381 50.898 100.502 50.898C101.022 50.9153 101.412 50.9413 101.672 50.976C101.932 50.9933 102.175 51.002 102.4 51.002C102.539 51.002 102.686 51.002 102.842 51.002C102.998 50.9847 103.189 50.9673 103.414 50.95C103.639 50.9327 103.917 50.9153 104.246 50.898C104.367 50.898 104.506 50.9153 104.662 50.95C104.818 50.9847 104.896 51.0713 104.896 51.21C104.896 51.366 104.861 51.4873 104.792 51.574C104.723 51.6433 104.601 51.7127 104.428 51.782C104.099 51.9033 103.804 52.1027 103.544 52.38C103.301 52.64 103.093 52.9693 102.92 53.368L98.968 62.884C98.7947 63.3 98.6213 63.7073 98.448 64.106C98.2747 64.522 98.1013 64.9293 97.928 65.328C97.772 65.7267 97.6073 66.1253 97.434 66.524C97.2607 66.9227 97.0873 67.3213 96.914 67.72C96.6887 68.2573 96.342 68.6647 95.874 68.942C95.4233 69.2193 94.912 69.358 94.34 69.358ZM108.938 62.364C108.348 62.364 107.776 62.2947 107.222 62.156C106.684 62.0347 106.182 61.818 105.714 61.506C105.54 61.2287 105.419 60.804 105.35 60.232C105.28 59.6427 105.254 59.01 105.272 58.334C105.272 58.1087 105.454 57.996 105.818 57.996C105.974 57.996 106.104 58.048 106.208 58.152C106.329 58.256 106.407 58.3513 106.442 58.438C106.788 59.1313 107.17 59.7553 107.586 60.31C108.002 60.8473 108.53 61.116 109.172 61.116C109.622 61.116 109.952 60.9773 110.16 60.7C110.385 60.4227 110.498 60.1193 110.498 59.79C110.498 59.3393 110.316 58.9667 109.952 58.672C109.588 58.3773 109.189 58.126 108.756 57.918C108.27 57.6753 107.794 57.398 107.326 57.086C106.858 56.7567 106.468 56.3493 106.156 55.864C105.844 55.3787 105.688 54.7893 105.688 54.096C105.688 53.3853 105.878 52.7787 106.26 52.276C106.658 51.756 107.187 51.3573 107.846 51.08C108.504 50.7853 109.224 50.638 110.004 50.638C110.593 50.638 111.139 50.7073 111.642 50.846C112.162 50.9673 112.517 51.0887 112.708 51.21C112.846 51.3833 112.95 51.7213 113.02 52.224C113.106 52.7093 113.15 53.264 113.15 53.888C113.15 54.0787 112.976 54.174 112.63 54.174C112.508 54.174 112.378 54.1307 112.24 54.044C112.101 53.94 112.014 53.8447 111.98 53.758C111.754 53.0647 111.46 52.5447 111.096 52.198C110.749 51.8513 110.368 51.678 109.952 51.678C109.57 51.678 109.224 51.7993 108.912 52.042C108.617 52.2847 108.47 52.6053 108.47 53.004C108.47 53.3507 108.643 53.6713 108.99 53.966C109.354 54.2433 109.77 54.5033 110.238 54.746C111.382 55.3353 112.196 55.9073 112.682 56.462C113.167 57.0167 113.41 57.762 113.41 58.698C113.41 59.8593 113.037 60.7607 112.292 61.402C111.546 62.0433 110.428 62.364 108.938 62.364ZM119.966 62.364C118.753 62.364 117.851 62.0693 117.262 61.48C116.673 60.8907 116.378 60.0587 116.378 58.984V53.004C116.378 52.848 116.317 52.7353 116.196 52.666C116.075 52.5967 115.867 52.5533 115.572 52.536H115.182C115.061 52.536 114.957 52.432 114.87 52.224C114.783 51.9987 114.74 51.7993 114.74 51.626C114.74 51.5913 114.749 51.548 114.766 51.496C114.783 51.444 114.827 51.4093 114.896 51.392C115.329 51.2533 115.806 51.0107 116.326 50.664C116.846 50.3173 117.349 49.9533 117.834 49.572C118.319 49.1733 118.709 48.8527 119.004 48.61C119.143 48.506 119.255 48.4193 119.342 48.35C119.446 48.2807 119.567 48.246 119.706 48.246C119.879 48.246 120.001 48.2807 120.07 48.35C120.139 48.4193 120.157 48.5753 120.122 48.818L119.94 50.43C119.923 50.6553 119.975 50.8113 120.096 50.898C120.217 50.9673 120.382 51.002 120.59 51.002H123.71C123.745 51.002 123.788 51.0627 123.84 51.184C123.892 51.3053 123.918 51.4093 123.918 51.496C123.918 51.7733 123.883 52.0333 123.814 52.276C123.745 52.5013 123.667 52.614 123.58 52.614H121.188C120.807 52.614 120.538 52.666 120.382 52.77C120.226 52.874 120.148 53.0387 120.148 53.264V58.126C120.148 58.9407 120.295 59.5473 120.59 59.946C120.902 60.3273 121.309 60.518 121.812 60.518C122.297 60.518 122.653 60.466 122.878 60.362C123.103 60.258 123.311 60.1713 123.502 60.102C123.571 60.0673 123.632 60.05 123.684 60.05C123.771 60.05 123.84 60.1107 123.892 60.232C123.944 60.336 123.97 60.466 123.97 60.622C123.97 60.726 123.779 60.9253 123.398 61.22C123.017 61.4973 122.523 61.7573 121.916 62C121.309 62.2427 120.659 62.364 119.966 62.364ZM129.656 62.364C128.72 62.364 127.879 62.1127 127.134 61.61C126.389 61.1073 125.799 60.4313 125.366 59.582C124.933 58.7153 124.716 57.7447 124.716 56.67C124.716 55.5607 124.976 54.5553 125.496 53.654C126.016 52.7353 126.718 52.0073 127.602 51.47C128.486 50.9327 129.465 50.664 130.54 50.664C131.285 50.664 131.961 50.8287 132.568 51.158C133.175 51.4873 133.66 51.9293 134.024 52.484C134.388 53.0213 134.57 53.6367 134.57 54.33C134.57 55.006 134.301 55.344 133.764 55.344H128.616C128.373 55.344 128.191 55.4133 128.07 55.552C127.966 55.6907 127.914 55.9247 127.914 56.254C127.914 56.878 128.053 57.45 128.33 57.97C128.607 58.4727 128.989 58.8713 129.474 59.166C129.959 59.4607 130.523 59.608 131.164 59.608C131.667 59.608 132.126 59.5127 132.542 59.322C132.975 59.1313 133.409 58.8713 133.842 58.542C133.894 58.5073 133.955 58.4727 134.024 58.438C134.093 58.386 134.154 58.36 134.206 58.36C134.397 58.36 134.492 58.4727 134.492 58.698C134.492 58.854 134.44 59.088 134.336 59.4C134.18 59.868 133.894 60.336 133.478 60.804C133.062 61.2547 132.525 61.6273 131.866 61.922C131.225 62.2167 130.488 62.364 129.656 62.364ZM128.616 54.2H129.994C130.497 54.2 130.826 54.1913 130.982 54.174C131.155 54.1567 131.311 54.122 131.45 54.07C131.537 54.0353 131.606 53.94 131.658 53.784C131.71 53.628 131.736 53.4633 131.736 53.29C131.736 52.8393 131.589 52.4753 131.294 52.198C131.017 51.9033 130.653 51.756 130.202 51.756C129.855 51.756 129.526 51.86 129.214 52.068C128.919 52.2587 128.677 52.51 128.486 52.822C128.295 53.134 128.209 53.4633 128.226 53.81C128.226 54.07 128.356 54.2 128.616 54.2ZM136.204 62.078C136.1 62.078 135.987 62.0433 135.866 61.974C135.745 61.9047 135.684 61.8093 135.684 61.688C135.684 61.5493 135.745 61.4367 135.866 61.35C136.005 61.2633 136.143 61.194 136.282 61.142C136.542 61.0553 136.767 60.96 136.958 60.856C137.149 60.7347 137.244 60.5007 137.244 60.154V54.122C137.244 53.7753 137.192 53.4807 137.088 53.238C136.984 52.978 136.785 52.822 136.49 52.77C136.421 52.7527 136.351 52.7093 136.282 52.64C136.213 52.5707 136.178 52.4493 136.178 52.276C136.178 52.016 136.273 51.86 136.464 51.808C136.88 51.704 137.348 51.5827 137.868 51.444C138.388 51.288 138.891 51.1233 139.376 50.95C139.879 50.7767 140.295 50.6033 140.624 50.43C140.693 50.3953 140.754 50.3607 140.806 50.326C140.858 50.2913 140.91 50.274 140.962 50.274C141.135 50.274 141.222 50.378 141.222 50.586C141.222 50.7247 141.196 50.9587 141.144 51.288C141.109 51.6 141.092 51.8773 141.092 52.12C141.092 52.2933 141.109 52.3973 141.144 52.432H141.196C141.751 51.8773 142.34 51.444 142.964 51.132C143.588 50.82 144.273 50.664 145.018 50.664C145.538 50.664 146.023 50.8633 146.474 51.262C146.942 51.6607 147.28 52.146 147.488 52.718H147.618C148.121 52.0593 148.693 51.5567 149.334 51.21C149.975 50.846 150.695 50.664 151.492 50.664C152.029 50.664 152.515 50.8113 152.948 51.106C153.399 51.4007 153.754 51.8253 154.014 52.38C154.291 52.9347 154.43 53.6107 154.43 54.408V60.18C154.43 60.5267 154.525 60.752 154.716 60.856C154.907 60.96 155.132 61.0553 155.392 61.142C155.531 61.194 155.652 61.2633 155.756 61.35C155.86 61.4367 155.912 61.5493 155.912 61.688C155.912 61.8093 155.86 61.9047 155.756 61.974C155.669 62.0433 155.574 62.078 155.47 62.078C155.123 62.078 154.785 62.0607 154.456 62.026C154.127 62.0087 153.806 61.9913 153.494 61.974C153.182 61.9567 152.87 61.948 152.558 61.948C152.263 61.948 151.977 61.9567 151.7 61.974C151.44 61.9913 151.171 62.0087 150.894 62.026C150.617 62.0607 150.305 62.078 149.958 62.078C149.854 62.078 149.759 62.0433 149.672 61.974C149.585 61.9047 149.542 61.8093 149.542 61.688C149.542 61.5493 149.585 61.4367 149.672 61.35C149.776 61.2633 149.897 61.194 150.036 61.142C150.261 61.0727 150.417 60.986 150.504 60.882C150.608 60.778 150.66 60.6047 150.66 60.362V55.058C150.66 54.6247 150.608 54.2607 150.504 53.966C150.4 53.654 150.244 53.42 150.036 53.264C149.845 53.0907 149.62 53.004 149.36 53.004C149.187 53.004 148.979 53.056 148.736 53.16C148.493 53.2467 148.251 53.394 148.008 53.602C147.817 53.7753 147.722 54.0787 147.722 54.512V60.18C147.722 60.5267 147.774 60.752 147.878 60.856C147.982 60.96 148.164 61.0553 148.424 61.142C148.563 61.194 148.684 61.2633 148.788 61.35C148.892 61.4367 148.944 61.5493 148.944 61.688C148.944 61.8093 148.892 61.9047 148.788 61.974C148.701 62.0433 148.606 62.078 148.502 62.078C148.155 62.078 147.835 62.0607 147.54 62.026C147.263 62.0087 146.985 61.9913 146.708 61.974C146.448 61.9567 146.162 61.948 145.85 61.948C145.555 61.948 145.269 61.9567 144.992 61.974C144.732 61.9913 144.463 62.0087 144.186 62.026C143.909 62.0607 143.597 62.078 143.25 62.078C143.146 62.078 143.051 62.0433 142.964 61.974C142.877 61.9047 142.834 61.8093 142.834 61.688C142.834 61.5493 142.877 61.4367 142.964 61.35C143.068 61.2633 143.189 61.194 143.328 61.142C143.553 61.0727 143.709 60.986 143.796 60.882C143.9 60.778 143.952 60.6047 143.952 60.362V55.058C143.952 54.6247 143.9 54.2607 143.796 53.966C143.692 53.6713 143.545 53.446 143.354 53.29C143.163 53.1167 142.938 53.03 142.678 53.03C142.505 53.03 142.297 53.0733 142.054 53.16C141.811 53.2467 141.551 53.3853 141.274 53.576C141.101 53.6973 141.014 53.9747 141.014 54.408V60.18C141.014 60.4747 141.049 60.6913 141.118 60.83C141.205 60.9513 141.378 61.0553 141.638 61.142C141.777 61.194 141.889 61.2633 141.976 61.35C142.08 61.4367 142.132 61.5493 142.132 61.688C142.132 61.792 142.089 61.8873 142.002 61.974C141.915 62.0433 141.82 62.078 141.716 62.078C141.369 62.078 141.049 62.0607 140.754 62.026C140.477 62.0087 140.208 61.9913 139.948 61.974C139.688 61.9567 139.402 61.948 139.09 61.948C138.795 61.948 138.492 61.9567 138.18 61.974C137.868 61.9913 137.547 62.0087 137.218 62.026C136.889 62.0607 136.551 62.078 136.204 62.078Z" fill="#474747"/>
<rect width="68.2028" height="74" rx="4" fill="#7F56D9"/>
<mask id="mask1_685_2" style="mask-type:alpha" maskUnits="userSpaceOnUse" x="21" y="28" width="28" height="29">
<rect x="21.4839" y="28.9862" width="27.2811" height="27.2811" fill="#D9D9D9"/>
</mask>
<g mask="url(#mask1_685_2)">
<path d="M35.1246 53.994C33.5332 53.994 32.046 53.6956 30.663 53.0989C29.28 52.5021 28.077 51.6922 27.0539 50.6691C26.0309 49.6461 25.2257 48.4383 24.6384 47.0459C24.0511 45.6534 23.7574 44.1615 23.7574 42.5701C23.7574 40.9787 24.0511 39.4962 24.6384 38.1227C25.2257 36.7491 26.0309 35.5509 27.0539 34.5278C28.077 33.5048 29.28 32.7043 30.663 32.1265C32.046 31.5487 33.5332 31.2598 35.1246 31.2598C36.716 31.2598 38.2032 31.5487 39.5862 32.1265C40.9692 32.7043 42.1722 33.5048 43.1952 34.5278C44.2183 35.5509 45.0235 36.7491 45.6108 38.1227C46.1981 39.4962 46.4917 40.9787 46.4917 42.5701C46.4917 44.1615 46.1981 45.6534 45.6108 47.0459C45.0235 48.4383 44.2183 49.6461 43.1952 50.6691C42.1722 51.6922 40.9692 52.5021 39.5862 53.0989C38.2032 53.6956 36.716 53.994 35.1246 53.994ZM35.1246 52.3458C35.7877 51.6638 36.3418 50.8823 36.787 50.0013C37.2322 49.1204 37.5969 48.0736 37.8811 46.8612H32.3965C32.6617 47.9979 33.0169 49.0209 33.4621 49.9303C33.9073 50.8396 34.4615 51.6448 35.1246 52.3458ZM32.7091 52.0048C32.2354 51.2849 31.8281 50.5081 31.4871 49.6745C31.1461 48.8409 30.8619 47.9031 30.6346 46.8612H26.3719C27.0918 48.2063 27.9254 49.2625 28.8727 50.0297C29.8199 50.797 31.0987 51.4554 32.7091 52.0048ZM37.5685 51.9764C38.9326 51.5406 40.1593 50.887 41.2486 50.0155C42.338 49.144 43.2142 48.0926 43.8773 46.8612H39.643C39.3967 47.8842 39.1078 48.8125 38.7763 49.6461C38.4447 50.4797 38.0421 51.2564 37.5685 51.9764ZM25.8035 45.1561H30.322C30.2651 44.6446 30.232 44.1851 30.2225 43.7778C30.213 43.3705 30.2083 42.9679 30.2083 42.5701C30.2083 42.0964 30.2178 41.6749 30.2367 41.3055C30.2557 40.936 30.2935 40.524 30.3504 40.0693H25.8035C25.6709 40.524 25.5809 40.9313 25.5336 41.2913C25.4862 41.6512 25.4625 42.0775 25.4625 42.5701C25.4625 43.0626 25.4862 43.5031 25.5336 43.8915C25.5809 44.2799 25.6709 44.7014 25.8035 45.1561ZM32.0839 45.1561H38.1937C38.2695 44.5688 38.3168 44.0904 38.3358 43.721C38.3547 43.3516 38.3642 42.9679 38.3642 42.5701C38.3642 42.1912 38.3547 41.8265 38.3358 41.476C38.3168 41.1255 38.2695 40.6566 38.1937 40.0693H32.0839C32.0081 40.6566 31.9607 41.1255 31.9418 41.476C31.9228 41.8265 31.9134 42.1912 31.9134 42.5701C31.9134 42.9679 31.9228 43.3516 31.9418 43.721C31.9607 44.0904 32.0081 44.5688 32.0839 45.1561ZM39.8988 45.1561H44.4456C44.5782 44.7014 44.6682 44.2799 44.7156 43.8915C44.763 43.5031 44.7866 43.0626 44.7866 42.5701C44.7866 42.0775 44.763 41.6512 44.7156 41.2913C44.6682 40.9313 44.5782 40.524 44.4456 40.0693H39.9272C39.984 40.7324 40.0219 41.2392 40.0409 41.5896C40.0598 41.9401 40.0693 42.2669 40.0693 42.5701C40.0693 42.9869 40.0551 43.38 40.0266 43.7494C39.9982 44.1188 39.9556 44.5877 39.8988 45.1561ZM39.6146 38.3642H43.8773C43.2521 37.057 42.3948 35.9677 41.3055 35.0962C40.2161 34.2247 38.961 33.609 37.5401 33.249C38.0137 33.95 38.4163 34.7078 38.7478 35.5224C39.0794 36.3371 39.3683 37.2843 39.6146 38.3642ZM32.3965 38.3642H37.9095C37.7011 37.3601 37.3506 36.3892 36.8581 35.4514C36.3655 34.5136 35.7877 33.6848 35.1246 32.9648C34.5183 33.4764 34.0068 34.1489 33.59 34.9825C33.1732 35.8161 32.7754 36.9433 32.3965 38.3642ZM26.3719 38.3642H30.663C30.8714 37.3412 31.1366 36.4271 31.4587 35.6219C31.7807 34.8167 32.1881 34.0352 32.6806 33.2774C31.2598 33.6374 30.0188 34.2436 28.9579 35.0962C27.897 35.9487 27.035 37.0381 26.3719 38.3642Z" fill="#A5CBC3"/>
</g>
<path d="M54.9411 18.2253H18.68C18.1965 18.2184 17.7194 18.1137 17.2775 17.9175C16.8356 17.7212 16.438 17.4375 16.1087 17.0835C15.7794 16.7294 15.5253 16.3123 15.3616 15.8573C15.1979 15.4024 15.128 14.9189 15.1562 14.4362C15.1538 13.4756 15.5164 12.55 16.1706 11.8466C16.8248 11.1431 17.7217 10.7144 18.68 10.6472H54.9411C55.4436 10.6472 55.9255 10.4476 56.2808 10.0923C56.636 9.73701 56.8356 9.25513 56.8356 8.75268C56.8356 8.25022 56.636 7.76834 56.2808 7.41305C55.9255 7.05776 55.4436 6.85815 54.9411 6.85815H18.68C16.7165 6.92692 14.8564 7.75558 13.4921 9.16936C12.1278 10.5831 11.3659 12.4715 11.3671 14.4362C11.3488 14.7454 11.3488 15.0554 11.3671 15.3646C11.3489 15.5156 11.3489 15.6682 11.3671 15.8192V59.9048C11.3659 61.8695 12.1278 63.7579 13.4921 65.1716C14.8564 66.5854 16.7165 67.4141 18.68 67.4828H54.9411C55.4436 67.4828 55.9255 67.2832 56.2808 66.928C56.636 66.5727 56.8356 66.0908 56.8356 65.5883V20.5934C56.8356 20.5934 56.8356 20.4798 56.8356 20.4229C56.8356 20.3661 56.8356 20.3093 56.8356 20.2524C56.8367 19.737 56.6415 19.2405 56.2895 18.8639C55.9376 18.4874 55.4554 18.259 54.9411 18.2253ZM53.0466 63.6938H18.68C17.7217 63.6266 16.8248 63.1979 16.1706 62.4944C15.5164 61.791 15.1538 60.8654 15.1562 59.9048V21.1618C16.2334 21.756 17.4503 22.0505 18.68 22.0143H53.0466V63.6938Z" fill="white"/>
<path d="M53.0465 12.9205H18.9451V15.857H53.0465V12.9205Z" fill="white"/>
<path d="M79.91 28.13C79.754 28.13 79.6327 28.0867 79.546 28C79.4593 27.9133 79.416 27.818 79.416 27.714C79.416 27.454 79.5893 27.272 79.936 27.168C80.508 26.9947 80.9067 26.8127 81.132 26.622C81.3747 26.4313 81.496 26.0673 81.496 25.53V13.674C81.496 13.1193 81.3833 12.7293 81.158 12.504C80.95 12.2613 80.5427 12.0707 79.936 11.932C79.728 11.88 79.5807 11.802 79.494 11.698C79.4247 11.594 79.39 11.49 79.39 11.386C79.39 11.2647 79.4333 11.1693 79.52 11.1C79.624 11.0133 79.754 10.97 79.91 10.97C80.482 10.97 80.9587 10.9873 81.34 11.022C81.7213 11.0567 82.0853 11.0913 82.432 11.126C82.7787 11.1607 83.1773 11.178 83.628 11.178C84.044 11.178 84.4253 11.1607 84.772 11.126C85.1187 11.074 85.5 11.0307 85.916 10.996C86.3493 10.944 86.878 10.918 87.502 10.918C89.5647 10.918 91.1333 11.2127 92.208 11.802C93.3 12.374 93.846 13.3707 93.846 14.792C93.846 15.312 93.716 15.8147 93.456 16.3C93.2133 16.7853 92.8753 17.2013 92.442 17.548C92.1647 17.7733 91.8613 17.9727 91.532 18.146C91.22 18.302 90.882 18.4233 90.518 18.51C90.4487 18.5273 90.414 18.5707 90.414 18.64C90.414 18.7093 90.4487 18.7527 90.518 18.77C90.986 18.8567 91.4627 18.9867 91.948 19.16C92.4507 19.316 92.9187 19.55 93.352 19.862C93.7853 20.174 94.132 20.5813 94.392 21.084C94.652 21.5693 94.782 22.1933 94.782 22.956C94.782 23.9267 94.626 24.698 94.314 25.27C94.0193 25.842 93.6553 26.2753 93.222 26.57C92.7887 26.8647 92.39 27.1073 92.026 27.298C91.454 27.5753 90.804 27.7833 90.076 27.922C89.348 28.0433 88.4813 28.104 87.476 28.104C86.8173 28.104 86.1847 28.0867 85.578 28.052C84.9713 28.0173 84.33 28 83.654 28C83.3073 28 82.9 28.0087 82.432 28.026C81.9813 28.0433 81.5307 28.0607 81.08 28.078C80.6467 28.1127 80.2567 28.13 79.91 28.13ZM87.398 26.596C87.8833 26.596 88.3253 26.4487 88.724 26.154C89.14 25.842 89.4693 25.426 89.712 24.906C89.9547 24.386 90.076 23.8053 90.076 23.164C90.076 22.5747 90.0067 22.0893 89.868 21.708C89.7467 21.3267 89.5907 21.0233 89.4 20.798C89.2267 20.5553 89.062 20.3733 88.906 20.252C88.7847 20.1307 88.5593 20.0093 88.23 19.888C87.918 19.7493 87.528 19.68 87.06 19.68C86.8347 19.68 86.5833 19.7493 86.306 19.888C86.046 20.0093 85.916 20.2173 85.916 20.512V24.984C85.916 25.504 86.046 25.9027 86.306 26.18C86.566 26.4573 86.93 26.596 87.398 26.596ZM86.93 18.432C87.3287 18.432 87.684 18.3887 87.996 18.302C88.308 18.198 88.62 18.0073 88.932 17.73C89.0533 17.6087 89.2093 17.366 89.4 17.002C89.5907 16.6207 89.686 16.0833 89.686 15.39C89.686 14.61 89.5907 13.986 89.4 13.518C89.2267 13.0327 88.958 12.686 88.594 12.478C88.23 12.2527 87.7793 12.14 87.242 12.14C86.8087 12.14 86.4793 12.2353 86.254 12.426C86.0287 12.5993 85.916 12.868 85.916 13.232V17.522C85.916 17.834 86.0287 18.068 86.254 18.224C86.4967 18.3627 86.722 18.432 86.93 18.432ZM101.692 28.364C100.635 28.364 99.6812 28.13 98.8319 27.662C97.9826 27.194 97.3066 26.544 96.8039 25.712C96.3012 24.88 96.0499 23.9353 96.0499 22.878C96.0499 22.0287 96.2059 21.2313 96.5179 20.486C96.8472 19.7233 97.2892 19.056 97.8439 18.484C98.4159 17.912 99.0746 17.4613 99.8199 17.132C100.583 16.8027 101.397 16.638 102.264 16.638C103.356 16.638 104.335 16.8893 105.202 17.392C106.086 17.8947 106.788 18.562 107.308 19.394C107.828 20.226 108.088 21.136 108.088 22.124C108.088 23.2507 107.845 24.2907 107.36 25.244C106.892 26.1973 106.181 26.96 105.228 27.532C104.292 28.0867 103.113 28.364 101.692 28.364ZM102.186 27.142C102.498 27.142 102.767 27.0813 102.992 26.96C103.217 26.8213 103.408 26.6307 103.564 26.388C103.772 26.0413 103.919 25.5647 104.006 24.958C104.093 24.3513 104.136 23.6147 104.136 22.748C104.136 21.7773 104.041 20.928 103.85 20.2C103.659 19.472 103.391 18.9 103.044 18.484C102.715 18.068 102.325 17.86 101.874 17.86C101.649 17.86 101.441 17.9033 101.25 17.99C101.059 18.0593 100.895 18.1633 100.756 18.302C100.461 18.614 100.253 19.0993 100.132 19.758C100.028 20.3993 99.9759 21.2227 99.9759 22.228C99.9759 23.0427 100.071 23.8313 100.262 24.594C100.453 25.3393 100.713 25.9547 101.042 26.44C101.389 26.908 101.77 27.142 102.186 27.142ZM114.819 28.364C113.762 28.364 112.808 28.13 111.959 27.662C111.11 27.194 110.434 26.544 109.931 25.712C109.428 24.88 109.177 23.9353 109.177 22.878C109.177 22.0287 109.333 21.2313 109.645 20.486C109.974 19.7233 110.416 19.056 110.971 18.484C111.543 17.912 112.202 17.4613 112.947 17.132C113.71 16.8027 114.524 16.638 115.391 16.638C116.483 16.638 117.462 16.8893 118.329 17.392C119.213 17.8947 119.915 18.562 120.435 19.394C120.955 20.226 121.215 21.136 121.215 22.124C121.215 23.2507 120.972 24.2907 120.487 25.244C120.019 26.1973 119.308 26.96 118.355 27.532C117.419 28.0867 116.24 28.364 114.819 28.364ZM115.313 27.142C115.625 27.142 115.894 27.0813 116.119 26.96C116.344 26.8213 116.535 26.6307 116.691 26.388C116.899 26.0413 117.046 25.5647 117.133 24.958C117.22 24.3513 117.263 23.6147 117.263 22.748C117.263 21.7773 117.168 20.928 116.977 20.2C116.786 19.472 116.518 18.9 116.171 18.484C115.842 18.068 115.452 17.86 115.001 17.86C114.776 17.86 114.568 17.9033 114.377 17.99C114.186 18.0593 114.022 18.1633 113.883 18.302C113.588 18.614 113.38 19.0993 113.259 19.758C113.155 20.3993 113.103 21.2227 113.103 22.228C113.103 23.0427 113.198 23.8313 113.389 24.594C113.58 25.3393 113.84 25.9547 114.169 26.44C114.516 26.908 114.897 27.142 115.313 27.142ZM122.287 28.078C121.94 28.078 121.767 27.948 121.767 27.688C121.767 27.5493 121.819 27.4453 121.923 27.376C122.027 27.2893 122.174 27.2113 122.365 27.142C122.625 27.0553 122.85 26.9687 123.041 26.882C123.232 26.778 123.327 26.5353 123.327 26.154V13.804C123.327 13.336 123.266 12.9287 123.145 12.582C123.041 12.2353 122.772 12.0187 122.339 11.932C122.148 11.8973 122.053 11.7587 122.053 11.516C122.053 11.2907 122.14 11.1607 122.313 11.126C122.746 11.0393 123.24 10.9093 123.795 10.736C124.35 10.5453 124.878 10.3547 125.381 10.164C125.901 9.97333 126.291 9.83467 126.551 9.748C126.707 9.696 126.828 9.67 126.915 9.67C127.036 9.67 127.114 9.70467 127.149 9.774C127.184 9.84333 127.201 9.92133 127.201 10.008C127.201 10.1293 127.184 10.3373 127.149 10.632C127.114 10.9093 127.088 11.1693 127.071 11.412L127.097 21.396C127.097 21.6213 127.175 21.734 127.331 21.734C127.383 21.734 127.435 21.7167 127.487 21.682C127.556 21.6473 127.608 21.6213 127.643 21.604C128.267 21.0493 128.83 20.486 129.333 19.914C129.853 19.3247 130.2 18.8913 130.373 18.614C130.442 18.51 130.494 18.4233 130.529 18.354C130.581 18.2673 130.607 18.198 130.607 18.146C130.607 18.0593 130.538 17.9727 130.399 17.886C130.26 17.782 130.044 17.7127 129.749 17.678C129.541 17.6433 129.437 17.5393 129.437 17.366C129.437 17.21 129.498 17.1147 129.619 17.08C129.758 17.028 129.888 17.002 130.009 17.002H131.283C131.595 17.002 132.02 16.9933 132.557 16.976C133.112 16.9413 133.649 16.9067 134.169 16.872C134.706 16.82 135.088 16.7853 135.313 16.768C135.504 16.768 135.599 16.872 135.599 17.08C135.599 17.2187 135.547 17.34 135.443 17.444C135.339 17.5307 135.192 17.5913 135.001 17.626C134.706 17.6953 134.351 17.8167 133.935 17.99C133.519 18.1633 133.086 18.38 132.635 18.64C132.306 18.8133 131.976 19.0127 131.647 19.238C131.318 19.446 131.006 19.6627 130.711 19.888C130.434 20.1133 130.182 20.3387 129.957 20.564C129.87 20.6507 129.827 20.746 129.827 20.85C129.827 20.9193 129.844 20.98 129.879 21.032C129.931 21.0667 129.974 21.11 130.009 21.162C130.425 21.6993 130.806 22.228 131.153 22.748C131.5 23.2507 131.855 23.7447 132.219 24.23C132.583 24.7153 132.99 25.218 133.441 25.738C133.736 26.0673 134.091 26.3707 134.507 26.648C134.94 26.908 135.296 27.09 135.573 27.194C135.712 27.246 135.859 27.3067 136.015 27.376C136.188 27.4453 136.275 27.5493 136.275 27.688C136.275 27.948 136.084 28.078 135.703 28.078C134.576 28.078 133.493 28.0607 132.453 28.026C131.43 28.0087 130.486 28 129.619 28C129.272 28 129.099 27.87 129.099 27.61C129.099 27.4713 129.151 27.3673 129.255 27.298C129.359 27.2113 129.506 27.1333 129.697 27.064C129.836 27.012 129.922 26.96 129.957 26.908C130.009 26.8387 130.044 26.7693 130.061 26.7C130.061 26.6133 130.026 26.5267 129.957 26.44C129.905 26.336 129.827 26.2147 129.723 26.076L127.357 22.618C127.322 22.5833 127.288 22.566 127.253 22.566C127.149 22.6007 127.097 22.67 127.097 22.774C127.097 23.034 127.097 23.3027 127.097 23.58C127.097 23.84 127.097 24.1 127.097 24.36C127.097 24.6373 127.097 24.9407 127.097 25.27C127.097 25.582 127.097 25.8853 127.097 26.18C127.097 26.4573 127.149 26.6653 127.253 26.804C127.374 26.9253 127.574 27.0293 127.851 27.116C127.99 27.168 128.111 27.2373 128.215 27.324C128.319 27.4107 128.371 27.5233 128.371 27.662C128.371 27.7833 128.328 27.8873 128.241 27.974C128.172 28.0433 128.068 28.078 127.929 28.078C127.582 28.078 127.253 28.0607 126.941 28.026C126.629 28.0087 126.326 27.9913 126.031 27.974C125.736 27.9567 125.433 27.948 125.121 27.948C124.826 27.948 124.523 27.9567 124.211 27.974C123.916 27.9913 123.604 28.0087 123.275 28.026C122.963 28.0607 122.634 28.078 122.287 28.078ZM84.772 62.364C84.0267 62.364 83.2987 62.2773 82.588 62.104C81.8773 61.948 81.21 61.6793 80.586 61.298C80.4647 61.2113 80.3433 61.116 80.222 61.012C80.118 60.8907 80.04 60.7693 79.988 60.648C79.7973 60.1453 79.6673 59.5473 79.598 58.854C79.5287 58.1433 79.5113 57.4067 79.546 56.644C79.546 56.5227 79.5893 56.436 79.676 56.384C79.78 56.332 79.9013 56.306 80.04 56.306C80.2307 56.306 80.352 56.332 80.404 56.384C80.4733 56.436 80.5427 56.5227 80.612 56.644C81.0107 57.9267 81.5913 58.9927 82.354 59.842C83.134 60.6913 84.0527 61.116 85.11 61.116C85.6473 61.116 86.0807 60.9947 86.41 60.752C86.7567 60.492 87.008 60.18 87.164 59.816C87.3373 59.4347 87.424 59.0707 87.424 58.724C87.424 58.204 87.32 57.762 87.112 57.398C86.904 57.034 86.5833 56.696 86.15 56.384C85.7167 56.072 85.1533 55.734 84.46 55.37C83.732 54.9713 83.0213 54.538 82.328 54.07C81.652 53.602 81.0973 53.03 80.664 52.354C80.2307 51.678 80.014 50.8287 80.014 49.806C80.014 48.766 80.2913 47.8733 80.846 47.128C81.418 46.3653 82.172 45.776 83.108 45.36C84.0613 44.944 85.1013 44.736 86.228 44.736C86.8867 44.736 87.528 44.8053 88.152 44.944C88.7933 45.0827 89.3047 45.23 89.686 45.386C89.9113 45.4727 90.0673 45.568 90.154 45.672C90.2407 45.7587 90.3273 45.9493 90.414 46.244C90.5007 46.608 90.5613 47.0587 90.596 47.596C90.648 48.116 90.674 48.714 90.674 49.39C90.674 49.6153 90.5093 49.728 90.18 49.728C90.0413 49.728 89.9027 49.6933 89.764 49.624C89.6427 49.5373 89.5647 49.4333 89.53 49.312C89.2527 48.2373 88.8193 47.4313 88.23 46.894C87.6407 46.3393 86.9213 46.062 86.072 46.062C85.5347 46.062 85.0927 46.1487 84.746 46.322C84.4167 46.4953 84.1653 46.7467 83.992 47.076C83.836 47.388 83.758 47.7867 83.758 48.272C83.758 48.6533 83.8967 49.0173 84.174 49.364C84.4513 49.7107 84.85 50.066 85.37 50.43C85.9073 50.7767 86.5313 51.1667 87.242 51.6C88.2473 52.1893 89.0273 52.7613 89.582 53.316C90.1367 53.8707 90.5267 54.4513 90.752 55.058C90.9773 55.6473 91.09 56.3233 91.09 57.086C91.09 58.3167 90.8213 59.322 90.284 60.102C89.764 60.882 89.0273 61.454 88.074 61.818C87.138 62.182 86.0373 62.364 84.772 62.364ZM94.34 69.358C93.8547 69.358 93.3867 69.1847 92.936 68.838C92.5027 68.4913 92.286 68.0753 92.286 67.59C92.286 67.2433 92.3727 66.8967 92.546 66.55C92.7193 66.2207 92.9967 66.056 93.378 66.056C93.6727 66.056 93.976 66.108 94.288 66.212C94.6 66.316 94.8947 66.3593 95.172 66.342C95.4667 66.3073 95.666 66.2293 95.77 66.108C95.8913 66.004 96.03 65.8047 96.186 65.51C96.29 65.3367 96.3853 65.1807 96.472 65.042C96.5587 64.9033 96.6627 64.7127 96.784 64.47C96.9053 64.2273 97.07 63.8807 97.278 63.43C97.5207 62.8927 97.642 62.4247 97.642 62.026C97.642 61.7487 97.5987 61.4973 97.512 61.272C97.4253 61.0293 97.33 60.7953 97.226 60.57L94.002 53.368C93.8287 52.9693 93.6467 52.64 93.456 52.38C93.2653 52.1027 93.0053 51.9033 92.676 51.782C92.5027 51.7127 92.3813 51.6433 92.312 51.574C92.2427 51.4873 92.208 51.366 92.208 51.21C92.208 51.0713 92.286 50.9847 92.442 50.95C92.598 50.9153 92.7367 50.898 92.858 50.898C93.2913 50.898 93.664 50.9067 93.976 50.924C94.288 50.9413 94.5653 50.9587 94.808 50.976C95.0507 50.9933 95.2847 51.002 95.51 51.002C95.8913 51.002 96.2207 50.9933 96.498 50.976C96.7927 50.9587 97.096 50.9413 97.408 50.924C97.7373 50.9067 98.11 50.898 98.526 50.898C98.6473 50.898 98.7773 50.924 98.916 50.976C99.072 51.028 99.15 51.1233 99.15 51.262C99.15 51.418 99.0893 51.522 98.968 51.574C98.8467 51.626 98.7167 51.6867 98.578 51.756C98.3873 51.8253 98.2313 51.938 98.11 52.094C98.006 52.2327 97.954 52.458 97.954 52.77C97.954 52.926 97.9713 53.108 98.006 53.316C98.058 53.5067 98.1447 53.758 98.266 54.07L99.774 57.736C99.7913 57.7707 99.8087 57.788 99.826 57.788C99.8433 57.788 99.8607 57.7707 99.878 57.736L101.126 53.914C101.178 53.7753 101.221 53.6107 101.256 53.42C101.291 53.212 101.308 53.03 101.308 52.874C101.308 52.5793 101.213 52.3367 101.022 52.146C100.831 51.9553 100.641 51.8253 100.45 51.756C100.311 51.704 100.181 51.652 100.06 51.6C99.9387 51.5307 99.878 51.418 99.878 51.262C99.878 51.1233 99.9473 51.028 100.086 50.976C100.242 50.924 100.381 50.898 100.502 50.898C101.022 50.9153 101.412 50.9413 101.672 50.976C101.932 50.9933 102.175 51.002 102.4 51.002C102.539 51.002 102.686 51.002 102.842 51.002C102.998 50.9847 103.189 50.9673 103.414 50.95C103.639 50.9327 103.917 50.9153 104.246 50.898C104.367 50.898 104.506 50.9153 104.662 50.95C104.818 50.9847 104.896 51.0713 104.896 51.21C104.896 51.366 104.861 51.4873 104.792 51.574C104.723 51.6433 104.601 51.7127 104.428 51.782C104.099 51.9033 103.804 52.1027 103.544 52.38C103.301 52.64 103.093 52.9693 102.92 53.368L98.968 62.884C98.7947 63.3 98.6213 63.7073 98.448 64.106C98.2747 64.522 98.1013 64.9293 97.928 65.328C97.772 65.7267 97.6073 66.1253 97.434 66.524C97.2607 66.9227 97.0873 67.3213 96.914 67.72C96.6887 68.2573 96.342 68.6647 95.874 68.942C95.4233 69.2193 94.912 69.358 94.34 69.358ZM108.938 62.364C108.348 62.364 107.776 62.2947 107.222 62.156C106.684 62.0347 106.182 61.818 105.714 61.506C105.54 61.2287 105.419 60.804 105.35 60.232C105.28 59.6427 105.254 59.01 105.272 58.334C105.272 58.1087 105.454 57.996 105.818 57.996C105.974 57.996 106.104 58.048 106.208 58.152C106.329 58.256 106.407 58.3513 106.442 58.438C106.788 59.1313 107.17 59.7553 107.586 60.31C108.002 60.8473 108.53 61.116 109.172 61.116C109.622 61.116 109.952 60.9773 110.16 60.7C110.385 60.4227 110.498 60.1193 110.498 59.79C110.498 59.3393 110.316 58.9667 109.952 58.672C109.588 58.3773 109.189 58.126 108.756 57.918C108.27 57.6753 107.794 57.398 107.326 57.086C106.858 56.7567 106.468 56.3493 106.156 55.864C105.844 55.3787 105.688 54.7893 105.688 54.096C105.688 53.3853 105.878 52.7787 106.26 52.276C106.658 51.756 107.187 51.3573 107.846 51.08C108.504 50.7853 109.224 50.638 110.004 50.638C110.593 50.638 111.139 50.7073 111.642 50.846C112.162 50.9673 112.517 51.0887 112.708 51.21C112.846 51.3833 112.95 51.7213 113.02 52.224C113.106 52.7093 113.15 53.264 113.15 53.888C113.15 54.0787 112.976 54.174 112.63 54.174C112.508 54.174 112.378 54.1307 112.24 54.044C112.101 53.94 112.014 53.8447 111.98 53.758C111.754 53.0647 111.46 52.5447 111.096 52.198C110.749 51.8513 110.368 51.678 109.952 51.678C109.57 51.678 109.224 51.7993 108.912 52.042C108.617 52.2847 108.47 52.6053 108.47 53.004C108.47 53.3507 108.643 53.6713 108.99 53.966C109.354 54.2433 109.77 54.5033 110.238 54.746C111.382 55.3353 112.196 55.9073 112.682 56.462C113.167 57.0167 113.41 57.762 113.41 58.698C113.41 59.8593 113.037 60.7607 112.292 61.402C111.546 62.0433 110.428 62.364 108.938 62.364ZM119.966 62.364C118.753 62.364 117.851 62.0693 117.262 61.48C116.673 60.8907 116.378 60.0587 116.378 58.984V53.004C116.378 52.848 116.317 52.7353 116.196 52.666C116.075 52.5967 115.867 52.5533 115.572 52.536H115.182C115.061 52.536 114.957 52.432 114.87 52.224C114.783 51.9987 114.74 51.7993 114.74 51.626C114.74 51.5913 114.749 51.548 114.766 51.496C114.783 51.444 114.827 51.4093 114.896 51.392C115.329 51.2533 115.806 51.0107 116.326 50.664C116.846 50.3173 117.349 49.9533 117.834 49.572C118.319 49.1733 118.709 48.8527 119.004 48.61C119.143 48.506 119.255 48.4193 119.342 48.35C119.446 48.2807 119.567 48.246 119.706 48.246C119.879 48.246 120.001 48.2807 120.07 48.35C120.139 48.4193 120.157 48.5753 120.122 48.818L119.94 50.43C119.923 50.6553 119.975 50.8113 120.096 50.898C120.217 50.9673 120.382 51.002 120.59 51.002H123.71C123.745 51.002 123.788 51.0627 123.84 51.184C123.892 51.3053 123.918 51.4093 123.918 51.496C123.918 51.7733 123.883 52.0333 123.814 52.276C123.745 52.5013 123.667 52.614 123.58 52.614H121.188C120.807 52.614 120.538 52.666 120.382 52.77C120.226 52.874 120.148 53.0387 120.148 53.264V58.126C120.148 58.9407 120.295 59.5473 120.59 59.946C120.902 60.3273 121.309 60.518 121.812 60.518C122.297 60.518 122.653 60.466 122.878 60.362C123.103 60.258 123.311 60.1713 123.502 60.102C123.571 60.0673 123.632 60.05 123.684 60.05C123.771 60.05 123.84 60.1107 123.892 60.232C123.944 60.336 123.97 60.466 123.97 60.622C123.97 60.726 123.779 60.9253 123.398 61.22C123.017 61.4973 122.523 61.7573 121.916 62C121.309 62.2427 120.659 62.364 119.966 62.364ZM129.656 62.364C128.72 62.364 127.879 62.1127 127.134 61.61C126.389 61.1073 125.799 60.4313 125.366 59.582C124.933 58.7153 124.716 57.7447 124.716 56.67C124.716 55.5607 124.976 54.5553 125.496 53.654C126.016 52.7353 126.718 52.0073 127.602 51.47C128.486 50.9327 129.465 50.664 130.54 50.664C131.285 50.664 131.961 50.8287 132.568 51.158C133.175 51.4873 133.66 51.9293 134.024 52.484C134.388 53.0213 134.57 53.6367 134.57 54.33C134.57 55.006 134.301 55.344 133.764 55.344H128.616C128.373 55.344 128.191 55.4133 128.07 55.552C127.966 55.6907 127.914 55.9247 127.914 56.254C127.914 56.878 128.053 57.45 128.33 57.97C128.607 58.4727 128.989 58.8713 129.474 59.166C129.959 59.4607 130.523 59.608 131.164 59.608C131.667 59.608 132.126 59.5127 132.542 59.322C132.975 59.1313 133.409 58.8713 133.842 58.542C133.894 58.5073 133.955 58.4727 134.024 58.438C134.093 58.386 134.154 58.36 134.206 58.36C134.397 58.36 134.492 58.4727 134.492 58.698C134.492 58.854 134.44 59.088 134.336 59.4C134.18 59.868 133.894 60.336 133.478 60.804C133.062 61.2547 132.525 61.6273 131.866 61.922C131.225 62.2167 130.488 62.364 129.656 62.364ZM128.616 54.2H129.994C130.497 54.2 130.826 54.1913 130.982 54.174C131.155 54.1567 131.311 54.122 131.45 54.07C131.537 54.0353 131.606 53.94 131.658 53.784C131.71 53.628 131.736 53.4633 131.736 53.29C131.736 52.8393 131.589 52.4753 131.294 52.198C131.017 51.9033 130.653 51.756 130.202 51.756C129.855 51.756 129.526 51.86 129.214 52.068C128.919 52.2587 128.677 52.51 128.486 52.822C128.295 53.134 128.209 53.4633 128.226 53.81C128.226 54.07 128.356 54.2 128.616 54.2ZM136.204 62.078C136.1 62.078 135.987 62.0433 135.866 61.974C135.745 61.9047 135.684 61.8093 135.684 61.688C135.684 61.5493 135.745 61.4367 135.866 61.35C136.005 61.2633 136.143 61.194 136.282 61.142C136.542 61.0553 136.767 60.96 136.958 60.856C137.149 60.7347 137.244 60.5007 137.244 60.154V54.122C137.244 53.7753 137.192 53.4807 137.088 53.238C136.984 52.978 136.785 52.822 136.49 52.77C136.421 52.7527 136.351 52.7093 136.282 52.64C136.213 52.5707 136.178 52.4493 136.178 52.276C136.178 52.016 136.273 51.86 136.464 51.808C136.88 51.704 137.348 51.5827 137.868 51.444C138.388 51.288 138.891 51.1233 139.376 50.95C139.879 50.7767 140.295 50.6033 140.624 50.43C140.693 50.3953 140.754 50.3607 140.806 50.326C140.858 50.2913 140.91 50.274 140.962 50.274C141.135 50.274 141.222 50.378 141.222 50.586C141.222 50.7247 141.196 50.9587 141.144 51.288C141.109 51.6 141.092 51.8773 141.092 52.12C141.092 52.2933 141.109 52.3973 141.144 52.432H141.196C141.751 51.8773 142.34 51.444 142.964 51.132C143.588 50.82 144.273 50.664 145.018 50.664C145.538 50.664 146.023 50.8633 146.474 51.262C146.942 51.6607 147.28 52.146 147.488 52.718H147.618C148.121 52.0593 148.693 51.5567 149.334 51.21C149.975 50.846 150.695 50.664 151.492 50.664C152.029 50.664 152.515 50.8113 152.948 51.106C153.399 51.4007 153.754 51.8253 154.014 52.38C154.291 52.9347 154.43 53.6107 154.43 54.408V60.18C154.43 60.5267 154.525 60.752 154.716 60.856C154.907 60.96 155.132 61.0553 155.392 61.142C155.531 61.194 155.652 61.2633 155.756 61.35C155.86 61.4367 155.912 61.5493 155.912 61.688C155.912 61.8093 155.86 61.9047 155.756 61.974C155.669 62.0433 155.574 62.078 155.47 62.078C155.123 62.078 154.785 62.0607 154.456 62.026C154.127 62.0087 153.806 61.9913 153.494 61.974C153.182 61.9567 152.87 61.948 152.558 61.948C152.263 61.948 151.977 61.9567 151.7 61.974C151.44 61.9913 151.171 62.0087 150.894 62.026C150.617 62.0607 150.305 62.078 149.958 62.078C149.854 62.078 149.759 62.0433 149.672 61.974C149.585 61.9047 149.542 61.8093 149.542 61.688C149.542 61.5493 149.585 61.4367 149.672 61.35C149.776 61.2633 149.897 61.194 150.036 61.142C150.261 61.0727 150.417 60.986 150.504 60.882C150.608 60.778 150.66 60.6047 150.66 60.362V55.058C150.66 54.6247 150.608 54.2607 150.504 53.966C150.4 53.654 150.244 53.42 150.036 53.264C149.845 53.0907 149.62 53.004 149.36 53.004C149.187 53.004 148.979 53.056 148.736 53.16C148.493 53.2467 148.251 53.394 148.008 53.602C147.817 53.7753 147.722 54.0787 147.722 54.512V60.18C147.722 60.5267 147.774 60.752 147.878 60.856C147.982 60.96 148.164 61.0553 148.424 61.142C148.563 61.194 148.684 61.2633 148.788 61.35C148.892 61.4367 148.944 61.5493 148.944 61.688C148.944 61.8093 148.892 61.9047 148.788 61.974C148.701 62.0433 148.606 62.078 148.502 62.078C148.155 62.078 147.835 62.0607 147.54 62.026C147.263 62.0087 146.985 61.9913 146.708 61.974C146.448 61.9567 146.162 61.948 145.85 61.948C145.555 61.948 145.269 61.9567 144.992 61.974C144.732 61.9913 144.463 62.0087 144.186 62.026C143.909 62.0607 143.597 62.078 143.25 62.078C143.146 62.078 143.051 62.0433 142.964 61.974C142.877 61.9047 142.834 61.8093 142.834 61.688C142.834 61.5493 142.877 61.4367 142.964 61.35C143.068 61.2633 143.189 61.194 143.328 61.142C143.553 61.0727 143.709 60.986 143.796 60.882C143.9 60.778 143.952 60.6047 143.952 60.362V55.058C143.952 54.6247 143.9 54.2607 143.796 53.966C143.692 53.6713 143.545 53.446 143.354 53.29C143.163 53.1167 142.938 53.03 142.678 53.03C142.505 53.03 142.297 53.0733 142.054 53.16C141.811 53.2467 141.551 53.3853 141.274 53.576C141.101 53.6973 141.014 53.9747 141.014 54.408V60.18C141.014 60.4747 141.049 60.6913 141.118 60.83C141.205 60.9513 141.378 61.0553 141.638 61.142C141.777 61.194 141.889 61.2633 141.976 61.35C142.08 61.4367 142.132 61.5493 142.132 61.688C142.132 61.792 142.089 61.8873 142.002 61.974C141.915 62.0433 141.82 62.078 141.716 62.078C141.369 62.078 141.049 62.0607 140.754 62.026C140.477 62.0087 140.208 61.9913 139.948 61.974C139.688 61.9567 139.402 61.948 139.09 61.948C138.795 61.948 138.492 61.9567 138.18 61.974C137.868 61.9913 137.547 62.0087 137.218 62.026C136.889 62.0607 136.551 62.078 136.204 62.078Z" fill="#474747"/>
</svg>
