<svg width="69" height="74" viewBox="0 0 69 74" fill="none" xmlns="http://www.w3.org/2000/svg">
<rect width="68.2028" height="74" rx="4" fill="#7F56D9"/>
<mask id="mask0_409_2" style="mask-type:alpha" maskUnits="userSpaceOnUse" x="21" y="28" width="28" height="29">
<rect x="21.4839" y="28.9862" width="27.2811" height="27.2811" fill="#D9D9D9"/>
</mask>
<g mask="url(#mask0_409_2)">
<path d="M35.1246 53.994C33.5332 53.994 32.046 53.6956 30.663 53.0989C29.28 52.5021 28.077 51.6922 27.0539 50.6691C26.0309 49.6461 25.2257 48.4383 24.6384 47.0459C24.0511 45.6534 23.7574 44.1615 23.7574 42.5701C23.7574 40.9787 24.0511 39.4962 24.6384 38.1227C25.2257 36.7491 26.0309 35.5509 27.0539 34.5278C28.077 33.5048 29.28 32.7043 30.663 32.1265C32.046 31.5487 33.5332 31.2598 35.1246 31.2598C36.716 31.2598 38.2032 31.5487 39.5862 32.1265C40.9692 32.7043 42.1722 33.5048 43.1952 34.5278C44.2183 35.5509 45.0235 36.7491 45.6108 38.1227C46.1981 39.4962 46.4917 40.9787 46.4917 42.5701C46.4917 44.1615 46.1981 45.6534 45.6108 47.0459C45.0235 48.4383 44.2183 49.6461 43.1952 50.6691C42.1722 51.6922 40.9692 52.5021 39.5862 53.0989C38.2032 53.6956 36.716 53.994 35.1246 53.994ZM35.1246 52.3458C35.7877 51.6638 36.3418 50.8823 36.787 50.0013C37.2322 49.1204 37.5969 48.0736 37.8811 46.8612H32.3965C32.6617 47.9979 33.0169 49.0209 33.4621 49.9303C33.9073 50.8396 34.4615 51.6448 35.1246 52.3458ZM32.7091 52.0048C32.2354 51.2849 31.8281 50.5081 31.4871 49.6745C31.1461 48.8409 30.8619 47.9031 30.6346 46.8612H26.3719C27.0918 48.2063 27.9254 49.2625 28.8727 50.0297C29.8199 50.797 31.0987 51.4554 32.7091 52.0048ZM37.5685 51.9764C38.9326 51.5406 40.1593 50.887 41.2486 50.0155C42.338 49.144 43.2142 48.0926 43.8773 46.8612H39.643C39.3967 47.8842 39.1078 48.8125 38.7763 49.6461C38.4447 50.4797 38.0421 51.2564 37.5685 51.9764ZM25.8035 45.1561H30.322C30.2651 44.6446 30.232 44.1851 30.2225 43.7778C30.213 43.3705 30.2083 42.9679 30.2083 42.5701C30.2083 42.0964 30.2178 41.6749 30.2367 41.3055C30.2557 40.936 30.2935 40.524 30.3504 40.0693H25.8035C25.6709 40.524 25.5809 40.9313 25.5336 41.2913C25.4862 41.6512 25.4625 42.0775 25.4625 42.5701C25.4625 43.0626 25.4862 43.5031 25.5336 43.8915C25.5809 44.2799 25.6709 44.7014 25.8035 45.1561ZM32.0839 45.1561H38.1937C38.2695 44.5688 38.3168 44.0904 38.3358 43.721C38.3547 43.3516 38.3642 42.9679 38.3642 42.5701C38.3642 42.1912 38.3547 41.8265 38.3358 41.476C38.3168 41.1255 38.2695 40.6566 38.1937 40.0693H32.0839C32.0081 40.6566 31.9607 41.1255 31.9418 41.476C31.9228 41.8265 31.9134 42.1912 31.9134 42.5701C31.9134 42.9679 31.9228 43.3516 31.9418 43.721C31.9607 44.0904 32.0081 44.5688 32.0839 45.1561ZM39.8988 45.1561H44.4456C44.5782 44.7014 44.6682 44.2799 44.7156 43.8915C44.763 43.5031 44.7866 43.0626 44.7866 42.5701C44.7866 42.0775 44.763 41.6512 44.7156 41.2913C44.6682 40.9313 44.5782 40.524 44.4456 40.0693H39.9272C39.984 40.7324 40.0219 41.2392 40.0409 41.5896C40.0598 41.9401 40.0693 42.2669 40.0693 42.5701C40.0693 42.9869 40.0551 43.38 40.0266 43.7494C39.9982 44.1188 39.9556 44.5877 39.8988 45.1561ZM39.6146 38.3642H43.8773C43.2521 37.057 42.3948 35.9677 41.3055 35.0962C40.2161 34.2247 38.961 33.609 37.5401 33.249C38.0137 33.95 38.4163 34.7078 38.7478 35.5224C39.0794 36.3371 39.3683 37.2843 39.6146 38.3642ZM32.3965 38.3642H37.9095C37.7011 37.3601 37.3506 36.3892 36.8581 35.4514C36.3655 34.5136 35.7877 33.6848 35.1246 32.9648C34.5183 33.4764 34.0068 34.1489 33.59 34.9825C33.1732 35.8161 32.7754 36.9433 32.3965 38.3642ZM26.3719 38.3642H30.663C30.8714 37.3412 31.1366 36.4271 31.4587 35.6219C31.7807 34.8167 32.1881 34.0352 32.6806 33.2774C31.2598 33.6374 30.0188 34.2436 28.9579 35.0962C27.897 35.9487 27.035 37.0381 26.3719 38.3642Z" fill="#A5CBC3"/>
</g>
<path d="M54.9411 18.2253H18.68C18.1965 18.2184 17.7194 18.1137 17.2775 17.9175C16.8356 17.7212 16.438 17.4375 16.1087 17.0835C15.7794 16.7294 15.5253 16.3123 15.3616 15.8573C15.1979 15.4024 15.128 14.9189 15.1562 14.4362C15.1538 13.4756 15.5164 12.55 16.1706 11.8466C16.8248 11.1431 17.7217 10.7144 18.68 10.6472H54.9411C55.4436 10.6472 55.9255 10.4476 56.2808 10.0923C56.636 9.73701 56.8356 9.25513 56.8356 8.75268C56.8356 8.25022 56.636 7.76834 56.2808 7.41305C55.9255 7.05776 55.4436 6.85815 54.9411 6.85815H18.68C16.7165 6.92692 14.8564 7.75558 13.4921 9.16936C12.1278 10.5831 11.3659 12.4715 11.3671 14.4362C11.3488 14.7454 11.3488 15.0554 11.3671 15.3646C11.3489 15.5156 11.3489 15.6682 11.3671 15.8192V59.9048C11.3659 61.8695 12.1278 63.7579 13.4921 65.1716C14.8564 66.5854 16.7165 67.4141 18.68 67.4828H54.9411C55.4436 67.4828 55.9255 67.2832 56.2808 66.928C56.636 66.5727 56.8356 66.0908 56.8356 65.5883V20.5934C56.8356 20.5934 56.8356 20.4798 56.8356 20.4229C56.8356 20.3661 56.8356 20.3093 56.8356 20.2524C56.8367 19.737 56.6415 19.2405 56.2895 18.8639C55.9376 18.4874 55.4554 18.259 54.9411 18.2253ZM53.0466 63.6938H18.68C17.7217 63.6266 16.8248 63.1979 16.1706 62.4944C15.5164 61.791 15.1538 60.8654 15.1562 59.9048V21.1618C16.2334 21.756 17.4503 22.0505 18.68 22.0143H53.0466V63.6938Z" fill="white"/>
<path d="M53.0465 12.9205H18.9451V15.857H53.0465V12.9205Z" fill="white"/>
</svg>
